<svg width="21" height="24" viewBox="0 0 21 24" fill="none" xmlns="http://www.w3.org/2000/svg">
<g clip-path="url(#clip0_1681_15336)">
<path d="M11.49 23.9401C12.7806 23.8022 13.7439 23.4594 14.1798 23.2885C14.4201 23.1944 14.893 22.9997 15.458 22.682C17.1166 21.7489 18.4298 20.4589 19.387 18.8135C20.2291 17.3658 20.6905 15.8013 20.7706 14.1298C20.8073 13.3653 20.7692 12.6028 20.6356 11.8456C20.4524 10.8064 20.1277 9.81586 19.6453 8.87716C19.0041 7.62949 18.1441 6.55661 17.0704 5.65292C16.2505 4.96298 15.3445 4.41589 14.3557 4.00551C13.6868 3.72791 12.9954 3.52397 12.2825 3.39456C12.2035 3.38027 12.1489 3.3657 12.15 3.25954C12.1556 2.68584 12.1542 2.11186 12.1508 1.53817C12.1503 1.44489 12.1828 1.41827 12.2727 1.41995C12.5248 1.42472 12.7778 1.43452 13.0285 1.41575C13.1408 1.40735 13.2694 1.36057 13.3542 1.2883C13.6688 1.02134 13.6711 0.40338 13.3582 0.13362C13.2741 0.0610673 13.143 0.00644288 13.0332 0.00588263C11.2729 -0.00140063 9.51289 0.00140063 7.75314 0C7.60775 0 7.48506 0.0498623 7.3943 0.157991C7.16067 0.436155 7.13854 0.750175 7.27216 1.07568C7.39037 1.36393 7.6254 1.44376 7.92093 1.42472C8.15176 1.40987 8.38426 1.42163 8.61172 1.42163C8.62153 1.45385 8.62881 1.46702 8.62881 1.48018C8.63021 2.08189 8.62937 2.6836 8.63385 3.28559C8.63469 3.38447 8.56802 3.38167 8.50724 3.39764C8.01225 3.52621 7.50663 3.62398 7.02397 3.78841C5.26926 4.38592 3.7818 5.39101 2.56297 6.78827C1.25899 8.28302 0.447182 10.0128 0.132881 11.9683C-0.0707705 13.2356 -0.0407971 14.5032 0.228964 15.7612C0.682767 17.8793 1.7013 19.6838 3.27253 21.171C4.55326 22.3831 6.05502 23.2092 7.76182 23.6588C8.17641 23.7681 8.56214 23.8367 8.61368 23.8456C9.07309 23.9266 9.47619 23.9658 9.79973 23.9852C10.4785 24.0207 11.0544 23.9866 11.49 23.9401ZM10.1754 22.2304C5.5211 22.1195 1.76125 18.279 1.76573 13.5914C1.77021 8.88165 5.64071 4.95793 10.4606 4.98034C15.1692 5.00219 19.0394 8.89649 19.0189 13.6102C19.0425 18.3342 15.1266 22.3487 10.1754 22.2304Z" fill="#464EA3"/>
<path d="M5.59075 3.47045C4.20049 4.13238 3.01136 5.03775 1.99703 6.17366C1.49896 5.62573 1.77685 4.19037 2.50825 3.51387C3.43547 2.65668 4.81816 2.75445 5.59075 3.47045Z" fill="#464EA3"/>
<path d="M10.3954 20.9838C6.32207 20.9936 2.87148 17.6316 3.02078 13.3334C3.15581 9.44774 6.32683 6.24704 10.3696 6.23023C14.5051 6.21286 17.8815 9.60013 17.7675 13.8183C17.6602 17.7904 14.4071 20.9824 10.3954 20.9838ZM4.84468 15.3951C5.01808 15.3292 5.18392 15.2668 5.34919 15.2035C6.9672 14.5822 8.58408 13.9583 10.2043 13.3429C10.3486 13.288 10.3993 13.2266 10.3987 13.0675C10.3917 11.3459 10.3945 9.6245 10.3943 7.90286C10.3943 7.84907 10.3892 7.79529 10.3864 7.74262C6.45401 7.73086 3.84548 11.7333 4.84468 15.3951Z" fill="#464EA3"/>
</g>
<defs>
<clipPath id="clip0_1681_15336">
<rect width="20.7836" height="24" fill="white"/>
</clipPath>
</defs>
</svg>
