<svg width="16" height="13" viewBox="0 0 16 13" fill="none" xmlns="http://www.w3.org/2000/svg">
<path d="M15.7502 1.95066C15.6618 2.46064 15.3523 2.84312 15.0427 3.22561C12.7874 6.158 10.5322 9.09039 8.27689 12.0228C7.79045 12.6603 7.12714 13.0002 6.28694 13.0002C5.62362 13.0002 5.04875 12.7453 4.60654 12.2353C3.23569 10.7478 1.82061 9.30288 0.44976 7.81544C-0.434661 6.79547 0.0517706 5.30803 1.33418 4.96804C2.04172 4.79805 2.66081 4.96804 3.14724 5.52052C3.76634 6.2005 4.42965 6.88047 5.04875 7.56045C5.3583 7.90043 5.66784 8.24042 5.97739 8.58041C6.15428 8.7929 6.28694 8.7929 6.46382 8.53791C8.45377 5.94551 10.4437 3.3531 12.4337 0.7607C13.1854 -0.216764 14.6005 -0.259262 15.3523 0.675703C15.5291 0.888195 15.6176 1.14319 15.706 1.39818C15.706 1.44067 15.706 1.44067 15.7502 1.48317C15.7502 1.65317 15.7502 1.78066 15.7502 1.95066Z" fill="#64C048"/>
</svg>
